<?xml version="1.0" standalone="no"?>
<!DOCTYPE svg PUBLIC "-//W3C//DTD SVG 20010904//EN"
		"http://www.w3.org/TR/2001/REC-SVG-20010904/DTD/svg10.dtd">
<svg version="1.0" xmlns="http://www.w3.org/2000/svg"
     width="183.000000pt" height="183.000000pt" viewBox="0 0 183.000000 183.000000"
     preserveAspectRatio="xMidYMid meet">

	<g transform="translate(0.000000,183.000000) scale(0.100000,-0.100000)"
	   fill="#FFFFFF" stroke="none">
		<path d="M920 1455 c0 -27 1 -28 24 -19 24 9 20 44 -4 44 -15 0 -20 -7 -20
-25z"/>
		<path d="M1235 1444 c-165 -19 -621 -82 -646 -90 -15 -4 -15 -10 3 -67 40
-128 44 -357 8 -451 -5 -15 -10 -29 -10 -32 0 -2 155 -4 345 -4 l345 0 16 24
c47 73 67 307 40 466 -16 90 -40 151 -61 155 -6 1 -23 0 -40 -1z"/>
		<path d="M311 1043 c-10 -21 -32 -76 -49 -123 -79 -226 -68 -433 31 -575 l32
-46 659 0 c363 1 661 3 663 4 2 2 -4 21 -13 43 -44 103 -56 279 -29 429 8 44
15 87 15 95 0 8 -35 -19 -78 -61 -136 -131 -343 -215 -632 -255 -157 -22 -358
-22 -432 0 -177 51 -225 238 -116 449 18 34 34 65 36 70 2 4 -12 7 -32 7 -31
0 -38 -5 -55 -37z"/>
		<path d="M922 678 c3 -85 5 -93 23 -93 18 0 20 8 23 93 l3 92 -26 0 -26 0 3
-92z"/>
	</g>
</svg>
